<?xml version="1.0" encoding="utf-8"?>
<!-- Generator: Adobe Illustrator 22.0.0, SVG Export Plug-In . SVG Version: 6.00 Build 0)  -->
<svg version="1.1" id="Layer_1" xmlns="http://www.w3.org/2000/svg" xmlns:xlink="http://www.w3.org/1999/xlink" x="0px" y="0px"
	 viewBox="0 0 270 45" style="enable-background:new 0 0 270 45;" xml:space="preserve">
<style type="text/css">
	.st0{fill:#004990;}
	.st1{fill:#A3AEAD;}
	.st2{fill:#FFFFFF;}
</style>
<g>
	<path class="st0" d="M135.5,6.6C84.1,6.6,51.1,14,30.1,22.2v22.7H241V22.2C219.9,14.1,187,6.6,135.5,6.6"/>
	<path class="st1" d="M259.1,30.9l-0.1-0.6C241.9,20.2,208.9,2.8,146.1,1v5.7C208.9,8,241.9,20.8,259.1,30.9"/>
	<path class="st1" d="M12,30.3l-0.1,0.6C29.1,20.8,62.2,8,125.1,6.7V1C62.2,2.8,29.2,20.2,12,30.3"/>
	<path class="st1" d="M135.5,6.6c-3.6,0-7,0-10.5,0.1V45h21V6.7C142.6,6.7,139.1,6.6,135.5,6.6"/>
	<rect x="40.2" y="25" class="st2" width="2" height="15.9"/>
	<polygon class="st2" points="65.3,40.9 63.6,40.9 54.3,28.6 54.3,40.9 52.5,40.9 52.5,25 54,25 63.4,37.3 63.4,25 65.3,25 	"/>
	<polygon class="st2" points="84.3,27 79.5,27 79.5,40.9 77.6,40.9 77.6,27 72.8,27 72.8,25 84.3,25 	"/>
	<polygon class="st2" points="99.6,27 93.7,27 93.7,31.8 99.4,31.8 99.4,33.9 93.7,33.9 93.7,38.9 99.8,38.9 99.8,40.9 91.7,40.9 
		91.7,25 99.6,25 	"/>
	<path class="st2" d="M113.1,25c2.8,0,4.6,1.7,4.6,4.5c0,1.8-0.8,3.2-2.3,3.9c1.3,0.9,2,2.4,3.1,4.4c0.6,1.1,0.9,1.6,1.9,3.2h-2.4
		l-1.8-3.3c-1.8-3.3-2.7-3.7-3.7-3.7h-0.8v6.9h-2V25H113.1z M111.6,31.9h1.3c2.1,0,2.7-1.3,2.7-2.6c0-1.5-0.8-2.4-2.7-2.4h-1.3V31.9
		z"/>
	<polygon class="st0" points="140,25 143,25 143,40.9 139.6,40.9 139.6,31 135.8,36 135.3,36 131.5,31 131.5,40.9 128.1,40.9 
		128.1,25 131.1,25 135.6,30.9 	"/>
	<polygon class="st2" points="166.4,40.9 156.2,40.9 156.2,25 166.3,25 166.3,27.9 159.6,27.9 159.6,31.2 166,31.2 166,34.2 
		159.6,34.2 159.6,38 166.4,38 	"/>
	<polygon class="st2" points="189.5,27.9 184.5,27.9 184.5,40.9 181.1,40.9 181.1,27.9 176.1,27.9 176.1,25 189.5,25 	"/>
	<path class="st2" d="M212.7,40.9H209l-1.1-3.1h-6.2l-1,3.1h-3.6l5.6-15.9h4L212.7,40.9z M204.6,28.8l-2,6.2h4.3L204.6,28.8z"/>
	<polygon class="st2" points="233.5,40.9 222.9,40.9 222.9,25 226.4,25 226.4,38 233.5,38 	"/>
</g>
</svg>
